#!OML:ASF E:\motion texture\Top Level 1\Subject 1\Session 1\male.ASF
:FULLY-SPECIFIED
:DEGREES
195
root 39.7804 17.7215 5.71964 131.366 -79.4297 -127.332
lowerback 4.00358 3.34872 6.36327
upperback 1.39626 4.61252 4.18654
thorax -0.639451 2.24668 0.5621
lowerneck -21.4772 -6.19676 -8.75136
upperneck 8.53481 -7.01222 7.89794
head 6.64976 -3.03457 3.12976
rclavicle -5.56597e-015 0
rhumerus -5.08328 21.0281 -81.8583
rradius 82.0129
rwrist -11.7459
rhand -12.1087 -10.4944
rfingers 7.12502
rthumb 13.9523 -40.0062
lclavicle -5.56597e-015 0
lhumerus -73.6435 -16.8801 91.0206
lradius 68.5134
lwrist 4.68887
lhand -6.77694 4.78507
lfingers 7.12502
lthumb 19.0853 33.8687
rfemur 1.60326 4.73916 34.2271
rtibia 14.8927
rfoot -13.5854 -9.63831
rtoes 12.5335
lfemur -85.9485 11.5342 -16.239
ltibia 60.4515
lfoot 0.231575 -175.309
ltoes -6.31044
196
root 39.7122 17.7216 5.71821 132.177 -79.3857 -128.269
lowerback 4.04367 3.46497 6.33577
upperback 1.39363 4.77159 4.14753
thorax -0.657931 2.32633 0.528852
lowerneck -21.3811 -6.24131 -8.77049
upperneck 8.61006 -7.07583 7.88739
head 6.66467 -3.0677 3.12222
rclavicle -7.7526e-015 -5.00937e-014
rhumerus -3.93399 21.0222 -81.3934
rradius 82.636
rwrist -11.7027
rhand -12.1266 -10.4197
rfingers 7.12502
rthumb 13.935 -39.9327
lclavicle -7.7526e-015 -5.00937e-014
lhumerus -74.3935 -16.7682 90.7758
lradius 68.8481
lwrist 5.04185
lhand -6.7871 4.58569
lfingers 7.12502
lthumb 19.0756 33.6703
rfemur 2.00153 4.83774 34.1601
rtibia 14.8718
rfoot -13.6505 -9.64544
rtoes 12.2327
lfemur -86.8843 11.3946 -16.5156
ltibia 60.2063
lfoot 0.3992 -175.284
ltoes -6.25293
197
root 39.6427 17.7212 5.71718 132.848 -79.3492 -129.055
lowerback 4.13098 3.57003 6.30852
upperback 1.35626 4.92299 4.11621
thorax -0.73961 2.40023 0.498768
lowerneck -21.3252 -6.28902 -8.78779
upperneck 8.73937 -7.14096 7.86041
head 6.70286 -3.1015 3.10799
rclavicle -4.34344e-014 -9.54166e-015
rhumerus -2.86241 21.0032 -80.9484
rradius 83.1552
rwrist -11.6911
rhand -12.1599 -10.3477
rfingers 7.12502
rthumb 13.9029 -39.863
lclavicle -4.34344e-014 -9.54166e-015
lhumerus -75.1306 -16.6477 90.5477
lradius 69.151
lwrist 5.37854
lhand -6.80438 4.41792
lfingers 7.12502
lthumb 19.059 33.5041
rfemur 2.38263 4.91814 34.0978
rtibia 14.868
rfoot -13.7192 -9.65021
rtoes 11.9145
lfemur -87.705 11.2342 -16.7478
ltibia 60.0886
lfoot 0.541298 -175.279
ltoes -6.20214
198
root 39.5717 17.7205 5.71646 133.376 -79.3221 -129.686
lowerback 4.25132 3.6637 6.28562
upperback 1.30466 5.06341 4.08965
thorax -0.854853 2.46758 0.468236
lowerneck -21.3709 -6.34609 -8.80211
upperneck 8.93418 -7.21327 7.82568
head 6.7786 -3.13662 3.08791
rclavicle -5.96354e-015 2.54444e-014
rhumerus -1.84357 20.9639 -80.5164
rradius 83.5774
rwrist -11.7058
rhand -12.1738 -10.305
rfingers 7.12502
rthumb 13.8895 -39.8212
lclavicle -5.96354e-015 2.54444e-014
lhumerus -75.8133 -16.5251 90.3261
lradius 69.4207
lwrist 5.7055
lhand -6.81037 4.3056
lfingers 7.12502
lthumb 19.0532 33.3924
rfemur 2.7462 4.97481 34.039
rtibia 14.8791
rfoot -13.7867 -9.64787
rtoes 11.5641
lfemur -88.4084 11.052 -16.9337
ltibia 60.0946
lfoot 0.655934 -175.269
ltoes -6.21514
199
root 39.4993 17.7197 5.71599 133.761 -79.3021 -130.163
lowerback 4.37755 3.74595 6.27413
upperback 1.24555 5.18999 4.06616
thorax -0.980869 2.52756 0.433918
lowerneck -21.4749 -6.40774 -8.80708
upperneck 9.1648 -7.2891 7.77667
head 6.87472 -3.17281 3.05999
rclavicle 5.31749e-014 3.33958e-014
rhumerus -0.870226 20.908 -80.1044
rradius 83.9066
rwrist -11.7387
rhand -12.2009 -10.2768
rfingers 7.12502
rthumb 13.8634 -39.7947
lclavicle 5.31749e-014 3.33958e-014
lhumerus -76.4363 -16.3982 90.1082
lradius 69.654
lwrist 6.01799
lhand -6.79928 4.23414
lfingers 7.12502
lthumb 19.0639 33.3199
rfemur 3.09203 5.01195 33.9873
rtibia 14.9055
rfoot -13.8526 -9.63665
rtoes 11.1839
lfemur -88.9934 10.8547 -17.0702
ltibia 60.22
lfoot 0.75571 -175.251
ltoes -6.21712
200
root 39.4258 17.7188 5.71556 133.992 -79.2895 -130.468
lowerback 4.47534 3.81765 6.27803
upperback 1.19034 5.29993 4.04512
thorax -1.0863 2.57963 0.396204
lowerneck -21.5878 -6.47146 -8.8183
upperneck 9.38829 -7.36743 7.74339
head 6.97125 -3.20901 3.03761
rclavicle -2.67365e-014 -1.27222e-014
rhumerus 0.0624355 20.8323 -79.7111
rradius 84.1498
rwrist -11.7744
rhand -12.2437 -10.2574
rfingers 7.12502
rthumb 13.8222 -39.7781
lclavicle -2.67365e-014 -1.27222e-014
lhumerus -76.9891 -16.2729 89.893
lradius 69.8513
lwrist 6.30711
lhand -6.76584 4.2047
lfingers 7.12502
lthumb 19.096 33.2873
rfemur 3.41335 5.02747 33.9458
rtibia 14.9499
rfoot -13.9151 -9.61649
rtoes 10.7674
lfemur -89.465 10.645 -17.1595
ltibia 60.464
lfoot 0.851547 -175.217
ltoes -6.23935
201
root 39.3514 17.7179 5.71512 134.083 -79.2785 -130.616
lowerback 4.52572 3.88223 6.30254
upperback 1.14488 5.39583 4.02564
thorax -1.1538 2.62555 0.353167
lowerneck -21.6753 -6.53454 -8.82906
upperneck 9.5788 -7.44712 7.71935
head 7.05362 -3.24591 3.01842
rclavicle -2.94201e-014 2.54444e-014
rhumerus 0.946152 20.7333 -79.3388
rradius 84.3108
rwrist -11.8038
rhand -12.2621 -10.2401
rfingers 7.12502
rthumb 13.8044 -39.7621
lclavicle -2.94201e-014 2.54444e-014
lhumerus -77.4657 -16.1537 89.6819
lradius 70.009
lwrist 6.56812
lhand -6.71548 4.19349
lfingers 7.12502
lthumb 19.1444 33.2712
rfemur 3.70942 5.01915 33.9169
rtibia 15.0107
rfoot -13.9695 -9.58282
rtoes 10.2805
lfemur -89.8235 10.4322 -17.2005
ltibia 60.8254
lfoot 0.952549 -175.16
ltoes -6.26737
202
root 39.2759 17.7171 5.71476 134.043 -79.2755 -130.609
lowerback 4.49493 3.93966 6.34695
upperback 1.1222 5.47346 4.0055
thorax -1.15097 2.66423 0.306522
lowerneck -21.7286 -6.59546 -8.83738
upperneck 9.71522 -7.52668 7.70586
head 7.11329 -3.28297 3.00297
rclavicle 8.15017e-015 -7.95139e-015
rhumerus 1.79864 20.6107 -78.9805
rradius 84.3968
rwrist -11.8165
rhand -12.3021 -10.2332
rfingers 7.12502
rthumb 13.7659 -39.7578
lclavicle 8.15017e-015 -7.95139e-015
lhumerus -77.8494 -16.0412 89.4744
lradius 70.1267
lwrist 6.79406
lhand -6.66021 4.18365
lfingers 7.12502
lthumb 19.1976 33.2561
rfemur 3.97099 4.99111 33.895
rtibia 15.0908
rfoot -14.0137 -9.53976
rtoes 9.73854
lfemur -90.076 10.213 -17.2015
ltibia 61.2978
lfoot 1.0595 -175.08
ltoes -6.28964
203
root 39.1994 17.7162 5.71451 133.888 -79.2758 -130.463
lowerback 4.3689 3.99153 6.41303
upperback 1.12286 5.53346 3.98547
thorax -1.06921 2.69629 0.257516
lowerneck -21.7178 -6.6505 -8.84655
upperneck 9.78224 -7.6025 7.70675
head 7.14038 -3.31903 2.99419
rclavicle -2.04748e-014 5.48646e-014
rhumerus 2.61481 20.4696 -78.6394
rradius 84.415
rwrist -11.8222
rhand -12.3522 -10.2198
rfingers 7.12502
rthumb 13.7175 -39.7476
lclavicle -2.04748e-014 5.48646e-014
lhumerus -78.1418 -15.9327 89.2726
lradius 70.2015
lwrist 6.97167
lhand -6.59607 4.17973
lfingers 7.12502
lthumb 19.2593 33.2461
rfemur 4.19417 4.95172 33.883
rtibia 15.1938
rfoot -14.0535 -9.48594
rtoes 9.17377
lfemur -90.2288 9.99725 -17.1675
ltibia 61.8806
lfoot 1.17673 -174.973
ltoes -6.30272
204
root 39.122 17.7156 5.71436 133.631 -79.2784 -130.19
lowerback 4.18798 4.03831 6.48912
upperback 1.11742 5.58212 3.96991
thorax -0.96289 2.72328 0.212421
lowerneck -21.6141 -6.69594 -8.86388
upperneck 9.79701 -7.67052 7.72123
head 7.13579 -3.35293 2.99408
rclavicle 1.89839e-014 7.15625e-015
rhumerus 3.35747 20.3102 -78.3374
rradius 84.3776
rwrist -11.813
rhand -12.3964 -10.2175
rfingers 7.12502
rthumb 13.675 -39.7482
lclavicle 1.89839e-014 7.15625e-015
lhumerus -78.398 -15.8242 89.0974
lradius 70.2408
lwrist 7.10436
lhand -6.55199 4.18392
lfingers 7.12502
lthumb 19.3017 33.246
rfemur 4.37913 4.9042 33.8805
rtibia 15.3214
rfoot -14.0865 -9.4244
rtoes 8.59195
lfemur -90.2804 9.79005 -17.1024
ltibia 62.5703
lfoot 1.30693 -174.842
ltoes -6.30484
205
root 39.0436 17.715 5.71438 133.283 -79.2843 -129.801
lowerback 3.99179 4.07891 6.56585
upperback 1.08346 5.62316 3.96021
thorax -0.878264 2.74563 0.173424
lowerneck -21.4298 -6.73125 -8.88677
upperneck 9.78663 -7.72971 7.74088
head 7.10983 -3.38435 2.99939
rclavicle -4.19436e-014 -2.94201e-014
rhumerus 3.97759 20.15 -78.08
rradius 84.2981
rwrist -11.8045
rhand -12.4463 -10.2284
rfingers 7.12502
rthumb 13.6269 -39.7623
lclavicle -4.19436e-014 -2.94201e-014
lhumerus -78.649 -15.7123 88.9591
lradius 70.2449
lwrist 7.19516
lhand -6.54826 4.16103
lfingers 7.12502
lthumb 19.3052 33.2228
rfemur 4.53067 4.84296 33.8836
rtibia 15.4625
rfoot -14.1052 -9.35445
rtoes 7.96346
lfemur -90.229 9.59168 -17.0105
ltibia 63.3686
lfoot 1.45293 -174.691
ltoes -6.28879
206
root 38.9641 17.7146 5.71448 132.865 -79.2864 -129.318
lowerback 3.79518 4.1159 6.64066
upperback 1.02113 5.66124 3.95825
thorax -0.823759 2.76534 0.142421
lowerneck -21.2218 -6.76278 -8.91331
upperneck 9.78526 -7.785 7.75866
head 7.08274 -3.41467 3.00568
rclavicle -7.7526e-015 2.38542e-015
rhumerus 4.48317 19.9891 -77.8636
rradius 84.1819
rwrist -11.7991
rhand -12.4647 -10.2563
rfingers 7.12502
rthumb 13.6091 -39.7915
lclavicle -7.7526e-015 2.38542e-015
lhumerus -78.8845 -15.5974 88.8588
lradius 70.2126
lwrist 7.24426
lhand -6.57872 4.13418
lfingers 7.12502
lthumb 19.276 33.1989
rfemur 4.64446 4.78012 33.897
rtibia 15.6289
rfoot -14.1248 -9.27328
rtoes 7.35446
lfemur -90.0816 9.41456 -16.8937
ltibia 64.2722
lfoot 1.62012 -174.514
ltoes -6.25423
207
root 38.8836 17.7142 5.71482 132.389 -79.2916 -128.757
lowerback 3.61342 4.14577 6.71094
upperback 0.938842 5.69237 3.96021
thorax -0.799278 2.7805 0.116149
lowerneck -21.042 -6.79325 -8.94313
upperneck 9.81019 -7.83707 7.77652
head 7.06864 -3.44276 3.01241
rclavicle -1.96797e-014 -7.15625e-015
rhumerus 4.8936 19.8327 -77.6843
rradius 84.0379
rwrist -11.8026
rhand -12.4801 -10.2862
rfingers 7.12502
rthumb 13.5943 -39.8223
lclavicle -1.96797e-014 -7.15625e-015
lhumerus -79.0869 -15.4727 88.7839
lradius 70.1514
lwrist 7.26631
lhand -6.63072 4.09868
lfingers 7.12502
lthumb 19.2259 33.1683
rfemur 4.73309 4.70872 33.9107
rtibia 15.8102
rfoot -14.1431 -9.18109
rtoes 6.74745
lfemur -89.8293 9.25287 -16.7596
ltibia 65.2858
lfoot 1.81104 -174.312
ltoes -6.20374
